<?xml version="1.0" encoding="utf-8"?>
<!-- Generator: Adobe Illustrator 27.0.0, SVG Export Plug-In . SVG Version: 6.00 Build 0)  -->
<svg version="1.1" id="Layer_1" xmlns="http://www.w3.org/2000/svg" xmlns:xlink="http://www.w3.org/1999/xlink" x="0px" y="0px"
	 viewBox="0 0 600 181.59" style="enable-background:new 0 0 600 181.59;" xml:space="preserve">
<style type="text/css">
	.st0{fill:#BE1E2D;}
	.st1{fill:#2D1812;}
</style>
<g>
	<path class="st0" d="M542.76,89.76c-1.09,0.19-2.19,0.69-3.11,1.16c-1.53,0.8-3.19,1.49-3.69,3.28c-0.3,1.09-0.15,1.39,0.79,1.87
		c0.96,0.5,1.98,0.91,3.06,1.08c1.75,0.28,3.41-0.2,4.8-1.28c0.66-0.51,1.27-1.11,1.87-1.68c0.17-0.16,0.35-0.34,0.45-0.55
		c0.07-0.15,0.1-0.31,0.12-0.48c0.11-0.88-0.2-1.8-0.81-2.43C545.25,89.71,544,89.54,542.76,89.76z"/>
	<g>
		<g>
			<path class="st1" d="M154.88,128.9l0.25-0.58c0.27,0.3,0.61,0.55,1.01,0.76c0.41,0.21,0.85,0.32,1.31,0.32
				c0.81,0,1.4-0.21,1.77-0.62c0.37-0.42,0.55-0.95,0.55-1.6c0-0.49-0.1-0.93-0.3-1.33c-0.21-0.4-0.46-0.75-0.76-1.05
				c-0.3-0.3-0.7-0.65-1.2-1.06c-0.47-0.39-0.85-0.72-1.14-1.01c-0.28-0.28-0.52-0.61-0.72-0.97c-0.19-0.37-0.29-0.77-0.29-1.21
				c0-0.55,0.14-1.05,0.43-1.48c0.28-0.43,0.66-0.77,1.13-1.01c0.47-0.25,0.98-0.37,1.52-0.37c0.47,0,0.91,0.06,1.29,0.17
				c0.39,0.11,0.71,0.25,0.95,0.42l-0.25,0.58c-0.19-0.26-0.46-0.47-0.83-0.65c-0.36-0.18-0.75-0.26-1.16-0.26
				c-0.71,0-1.25,0.21-1.61,0.62c-0.36,0.42-0.55,0.94-0.55,1.57c0,0.47,0.1,0.9,0.3,1.28c0.2,0.37,0.44,0.7,0.73,0.98
				c0.29,0.28,0.68,0.61,1.16,1c0.5,0.4,0.89,0.74,1.18,1.02c0.29,0.28,0.53,0.61,0.73,1c0.2,0.38,0.3,0.82,0.3,1.3
				c0,0.57-0.14,1.07-0.43,1.52c-0.29,0.45-0.68,0.8-1.17,1.04c-0.49,0.25-1.04,0.37-1.64,0.37
				C156.58,129.64,155.72,129.39,154.88,128.9z"/>
			<path class="st1" d="M187.44,129.48h-0.91V118.1h-0.5l-4.65,0.33v-0.58h11.21v0.58l-4.65-0.33h-0.5V129.48z"/>
			<path class="st1" d="M223.31,129.48h-1.03l-2.24-4.49h-6.38l-2.24,4.49h-0.57l6.23-11.79L223.31,129.48z M216.85,118.65
				l-3.05,6.1h6.11L216.85,118.65z"/>
			<path class="st1" d="M247.31,129.48h-0.91v-4.45l-4.57-7.17h1.05l4.22,7.08l4.22-7.08h0.57l-4.57,7.17V129.48z"/>
			<path class="st1" d="M350.7,128.9l0.25-0.58c0.27,0.3,0.61,0.55,1.01,0.76c0.41,0.21,0.85,0.32,1.31,0.32
				c0.81,0,1.4-0.21,1.77-0.62c0.37-0.42,0.55-0.95,0.55-1.6c0-0.49-0.1-0.93-0.3-1.33c-0.21-0.4-0.46-0.75-0.76-1.05
				c-0.3-0.3-0.7-0.65-1.2-1.06c-0.47-0.39-0.85-0.72-1.14-1.01c-0.28-0.28-0.52-0.61-0.72-0.97c-0.19-0.37-0.29-0.77-0.29-1.21
				c0-0.55,0.14-1.05,0.43-1.48c0.28-0.43,0.66-0.77,1.13-1.01c0.47-0.25,0.98-0.37,1.52-0.37c0.47,0,0.91,0.06,1.29,0.17
				c0.39,0.11,0.71,0.25,0.95,0.42l-0.25,0.58c-0.19-0.26-0.46-0.47-0.83-0.65c-0.36-0.18-0.75-0.26-1.16-0.26
				c-0.71,0-1.25,0.21-1.61,0.62c-0.36,0.42-0.55,0.94-0.55,1.57c0,0.47,0.1,0.9,0.3,1.28c0.2,0.37,0.44,0.7,0.73,0.98
				c0.29,0.28,0.68,0.61,1.16,1c0.5,0.4,0.89,0.74,1.18,1.02c0.29,0.28,0.53,0.61,0.73,1c0.2,0.38,0.3,0.82,0.3,1.3
				c0,0.57-0.14,1.07-0.43,1.52c-0.29,0.45-0.68,0.8-1.17,1.04c-0.49,0.25-1.04,0.37-1.64,0.37
				C352.39,129.64,351.54,129.39,350.7,128.9z"/>
			<path class="st1" d="M383.99,129.48h-5.15v-11.63h5.15v0.53l-3.74-0.28h-0.5v11.13h0.5l3.74-0.28V129.48z M383.08,123.08v0.47
				L380,123.4v-0.17L383.08,123.08z"/>
			<path class="st1" d="M411.48,129.48h-5.15v-11.63h5.15v0.53l-3.74-0.28h-0.5v11.13h0.5l3.74-0.28V129.48z M410.57,123.08v0.47
				l-3.07-0.15v-0.17L410.57,123.08z"/>
		</g>
	</g>
	<g>
		<g>
			<path class="st1" d="M265.21,31.06c0.49,0.05,0.98,0.08,1.47,0.08c0.81,0.01,1.65-0.04,2.38-0.41c0.72-0.37,1.3-1.14,1.2-1.95
				c-0.08-0.61-0.53-1.13-1.06-1.45c-2.29-1.36-5.8-1.45-8.41-1.58c-2.72-0.13-5.45-0.01-8.15,0.28
				c-6.23,0.66-12.35,2.17-18.32,4.04c-6.96,2.18-13.76,4.86-20.45,7.78c-7.41,3.23-14.69,6.76-21.89,10.43
				c-7.62,3.88-15.16,7.91-22.66,11.99c-7.6,4.13-15.17,8.32-22.76,12.46c-7.35,4.02-14.73,8-22.18,11.85
				c-6.89,3.55-13.83,6.99-20.91,10.14c-6.2,2.76-12.5,5.31-18.98,7.34c-5.31,1.67-10.79,3.02-16.36,3.45
				c-3.91,0.3-8.16,0.3-11.78-1.41c-0.77-0.36-1.51-0.8-2.35-0.97c-0.83-0.17-1.8-0.02-2.34,0.63c-0.4,0.48-0.5,1.15-0.36,1.76
				c0.14,0.6,0.5,1.14,0.95,1.57c0.82,0.79,1.9,1.27,3.01,1.5c4.04,0.85,8.85,0.13,12.92-0.27c4.31-0.43,8.6-1.13,12.83-2.04
				c9.06-1.94,17.9-4.82,26.52-8.2c9.09-3.57,17.96-7.71,26.66-12.15c8.86-4.52,17.56-9.35,26.19-14.29
				c8.41-4.82,16.74-9.76,25.11-14.64c7.74-4.51,15.51-8.99,23.43-13.18c6.88-3.64,13.88-7.1,21.14-9.91
				c5.86-2.27,11.97-4.2,18.25-4.85c2.23-0.23,4.49-0.29,6.73-0.09C258.55,29.3,261.74,30.7,265.21,31.06z"/>
			<path class="st1" d="M310.82,78.48c-0.01-0.63-0.09-1.39-0.65-1.69c-0.31-0.16-0.7-0.12-1.03,0.02s-0.61,0.36-0.89,0.57
				c-1.23,0.89-2.62,1.56-3.9,2.38c-1.49,0.96-3.13,1.75-4.74,2.48c-2.66,1.2-5.46,2.13-8.34,2.63c-3.97,0.68-8.28,0.57-11.99-1.15
				c-1.18-0.55-2.34-1.29-3.31-2.15c-0.65-0.58-1.33-1.97-2.41-1.49c-0.7,0.31-0.89,1.3-1.46,1.78c-0.64,0.54-1.53,1.1-2.26,1.54
				c-1.57,0.94-3.47,1.37-5.16,0.49c-1.69-0.88-1.8-2.94-1.4-4.58c0.38-1.59,1.04-2.66,2.27-3.75c0.3-0.27,0.63-0.53,0.86-0.86
				c0.23-0.33,0.36-0.76,0.24-1.15c-0.12-0.36-0.45-0.62-0.81-0.75s-0.74-0.15-1.13-0.16c-1.61-0.04-3.09,0.43-4.67,0.5
				c-1.56,0.07-3.08,0.26-4.64,0.43c-3.61,0.39-7.21,0.81-10.81,1.24c-6.99,0.84-13.96,1.75-20.93,2.73
				c-4.49,0.63-8.98,1.28-13.47,1.97c0.73-0.11,1.82-1.15,2.45-1.56c0.9-0.58,1.8-1.16,2.69-1.74c1.97-1.29,3.94-2.59,5.9-3.9
				c3.66-2.44,7.31-4.9,10.96-7.36c1.42-0.96,2.74-2.01,4.18-2.91c1.63-1.02,3.18-2.19,4.6-3.48c0.41-0.37,0.84-0.88,0.68-1.41
				c-0.14-0.45-0.64-0.66-1.1-0.78c-5.38-1.51-9.49,2.67-13.43,5.67c-4.94,3.74-9.91,7.43-14.97,11.01
				c-5.07,3.59-10.19,7.35-16.4,8.62c-10.52,2.16-21.2,3.73-31.76,5.79c-1.82,0.35-3.64,0.72-5.45,1.09
				c-1.07,0.22-1.91,0.62-2.75,1.35c-0.41,0.36-0.83,0.76-0.97,1.29c-0.51,1.84,2.05,2.72,3.31,3.12c2.6,0.83,5.32,1.22,8.04,1.33
				c6.03,0.24,12.14-0.87,17.77-3c1.67-0.63,3.33-1.28,4.97-1.96c8.62-3.56,16.44-8.66,25.65-10.62
				c10.22-2.18,20.82-2.95,31.23-3.79c2.7-0.22,5.4-0.41,8.1-0.59c1.22-0.08,2.44-0.16,3.65-0.23c0.57-0.03,1.23-0.15,1.79,0.01
				c1.2,0.35,0.87,1,0.45,1.65c-0.51,0.8-0.74,1.63-0.77,2.62c-0.07,2.04,0.84,3.92,2.53,5.07c3.07,2.08,7.66,1.48,10.61-0.53
				c1.93-1.31,3.96,1.37,5.74,1.94c2.02,0.65,4.15,0.87,6.27,0.84c5.68-0.07,11.29-1.81,16.51-3.91c1.24-0.5,2.47-1.02,3.68-1.58
				c1.17-0.54,2.44-1.75,3.84-1.16c1.03,0.43,1.28,1.86,2.22,2.57c2.38,1.79,5.52,2.38,8.44,2.34c2.48-0.04,4.95-0.48,7.34-1.15
				c1.22-0.34,2.43-0.75,3.61-1.21c0.89-0.35,4.29-2.04,2.62,0c-2.13,2.6-3.86,5.57-5.97,8.2c-6.87,8.61-14.79,16.37-23.03,23.67
				c-8.46,7.49-17.36,14.5-26.58,21.03c-4.08,2.89-8.23,5.69-12.46,8.35c-1.9,1.19-3.79,2.47-5.82,3.42
				c-1.2,0.56-2.21,1.41-3.41,2.01c-1.32,0.65-2.7,1.18-3.92,2.02c-0.63,0.44-1.27,1.15-1.05,1.89c0.17,0.57,0.77,0.88,1.34,1.05
				c1.8,0.53,3.75,0.29,5.52-0.33c1.77-0.62,3.38-1.6,4.98-2.57c2.33-1.42,4.67-2.64,6.91-4.18c2.24-1.55,4.46-3.14,6.66-4.76
				c4.23-3.13,8.36-6.38,12.4-9.75c8.84-7.36,17.25-15.24,25.18-23.57c6.08-6.39,11.92-13.04,17.26-20.06
				c1.8-2.37,3.56-4.79,5.17-7.3c0.65-1.01,1.56-1.91,1.19-3.16c-0.02-0.07-0.04-0.14-0.1-0.18c-0.05-0.04-0.12-0.04-0.19-0.03
				c-0.63,0.01-0.88,0.15-1.43,0.42c-4.75,2.32-9.97,4.51-15.38,4.14c-2.05-0.14-4.05-0.73-5.75-1.9c-1.38-0.95-1.98-1.53-2.56-3.06
				c-0.19-0.52-0.53-1.03-1.05-1.21c-0.12-0.04-0.24-0.06-0.36-0.07c-0.54-0.03-1.09,0.26-1.58,0.54c-0.96,0.55-1.95,1.03-2.91,1.57
				 M177.39,92.34c-3.09,0.86-6.36,1.24-9.57,1.07c-1.31-0.07-6.95-0.5-6.99-2.54c-0.01-0.42,0.26-0.8,0.59-1.06
				c1.02-0.82,3.06-0.84,4.32-1.13c1.69-0.39,3.38-0.77,5.08-1.14c3.21-0.71,6.42-1.39,9.64-2.04c3.14-0.64,6.28-1.25,9.43-1.83
				c1.52-0.28,3.03-0.56,4.55-0.83c1.08-0.19,3.16-0.14,4.08-0.71C189.11,88,182.69,90.87,177.39,92.34z"/>
		</g>
		<g>
			<path class="st1" d="M460.22,54.22c1.04,0.13,2.14,0.09,3.05-0.41c0.72-0.4,1.32-1.24,1.05-2.02c-0.18-0.51-0.68-0.85-1.21-0.97
				c-2.42-0.57-5.28-0.19-7.75-0.05c-2.69,0.15-5.38,0.39-8.05,0.72c-5.36,0.65-10.68,1.64-15.93,2.89
				c-10.58,2.52-20.89,6.11-30.95,10.24c-9.97,4.1-19.71,8.75-29.37,13.55c-9.12,4.54-18.17,9.23-27.33,13.68
				c-8.11,3.93-16.33,7.71-24.86,10.64c-7.05,2.42-14.44,4.33-21.94,4.43c-1.73,0.02-3.48-0.07-5.2-0.21
				c-1.52-0.12-3.17-0.79-4.68-0.31c-0.21,0.07-0.43,0.17-0.53,0.37c-0.08,0.16-0.06,0.35-0.01,0.52c0.59,1.94,3.47,1.85,5.03,2.04
				c2.49,0.3,4.87,0.13,7.38-0.19c5.59-0.74,11.07-2.18,16.5-3.66c9.16-2.49,18.12-5.71,26.93-9.23
				c9.32-3.72,18.49-7.79,27.61-11.98c8.96-4.11,17.86-8.35,26.81-12.49c8.1-3.75,16.23-7.44,24.52-10.76
				c6.75-2.7,13.63-5.22,20.74-6.78c2.79-0.61,5.63-1.08,8.49-1.2c3.15-0.13,5.87,0.55,8.94,1.07c0.2,0.04,0.41,0.07,0.62,0.1
				C460.12,54.21,460.17,54.21,460.22,54.22z"/>
			<path class="st1" d="M496.23,92.42c-11.42,0.9-16.73-2.11-18.2-5.02c0.01,0.01,0.8-0.31,0.88-0.34c1.35-0.53,2.69-1.11,4-1.73
				c1.15-0.55,2.34-1.27,3.22-2.21c0.26-0.28,0.5-0.59,0.64-0.94c0.14-0.35,0.18-0.76,0.06-1.12c-0.16-0.45-0.56-0.76-0.99-0.92
				c-0.46-0.17-0.96-0.32-1.45-0.36c-1.08-0.08-2.17-0.09-3.25,0c-1.13,0.09-2.26,0.29-3.34,0.64c-1.01,0.32-1.98,0.78-2.81,1.45
				c-0.79,0.64-1.42,1.47-1.77,2.44c-0.46,1.29-0.32,2.51,0.3,3.63c-5.07,1.91-11.32,3.52-18.21,3.98
				c-13.89,0.93-20.56-2.58-22.57-6.06c2.07-0.67,4.11-1.42,6.09-2.3c1.04-0.47,2.12-0.94,3.09-1.55c0.47-0.3,0.96-0.55,1.38-0.93
				c0.42-0.38,0.79-0.82,1.07-1.31c0.18-0.31,0.32-0.64,0.38-0.99c0.05-0.35,0.01-0.73-0.18-1.03c-0.13-0.2-0.32-0.37-0.51-0.51
				c-0.66-0.47-1.34-0.57-2.11-0.7c-0.49-0.08-0.99-0.15-1.49-0.19c-1.83-0.15-3.68-0.11-5.5,0.17c-1.77,0.27-3.54,0.77-5.09,1.69
				c-1.44,0.86-2.62,2.11-3.19,3.71c-0.52,1.44-0.43,2.85,0.17,4.17c-11.06,3.24-34.21,8.06-40.39,5.81c-4.17-1.52-4.24,3.5-0.4,3.1
				c12.3-1.28,34.99-5.96,41.53-7.67c3.72,5.09,15.35,8.41,29.12,5.83c6.04-1.13,12.01-2.61,17.37-4.38
				c3.1,3.79,12.22,6.03,23.28,4.64c12.4-1.56,18.02-3.28,29.8-7.37c3.57-1.24,7.11-2.54,10.66-3.83c2.02-0.74,4.17-1.15,6.11-2.12
				c1.01-0.5,4.01-1.86,2.85-3.42c-0.68-0.91-2.63-0.79-3.58-0.51c-2.01,0.59-3.72,1.84-5.59,2.72c-0.8,0.37-1.6,0.75-2.4,1.12
				c-0.49,0.23-0.99,0.45-1.48,0.67c-7.06,3.17-14.32,5.88-21.73,8.11c-3.49,1.05-0.59,0.32-4.12,1.27
				c-3.79,1.02-7.63,1.9-11.54,2.32C496.31,92.41,496.27,92.41,496.23,92.42z M432.32,82.19c0.76-1.84,2.61-3.04,4.41-3.69
				c0.66-0.24,1.35-0.42,2.05-0.52c0.65-0.1,1.47-0.23,2.11-0.07c0.18,0.04,0.35,0.13,0.46,0.28s0.15,0.36,0.07,0.52
				c-0.1,0.19-0.32,0.38-0.47,0.53c-0.18,0.18-0.37,0.34-0.56,0.5c-0.4,0.34-0.82,0.67-1.25,0.97c-0.95,0.67-1.95,1.27-2.98,1.8
				c-1.3,0.68-2.65,1.27-4.01,1.8C432,83.56,432.05,82.83,432.32,82.19z M477.79,84.51c0.49-1.18,1.54-2.03,2.65-2.59
				c1.18-0.6,2.52-0.93,3.85-0.92c0.59,0.01,1.29,0.12,0.88,0.91c-0.11,0.21-0.28,0.38-0.45,0.54c-1.3,1.19-2.94,1.92-4.55,2.63
				c-0.51,0.22-1.01,0.45-1.52,0.67c-0.11,0.05-1.04,0.36-1.02,0.47C477.53,85.6,477.58,85.02,477.79,84.51z"/>
		</g>
	</g>
</g>
</svg>
